<svg xmlns="http://www.w3.org/2000/svg" viewBox="0 0 77.75 77.91"><title>bds_icon_pen</title><g id="Layer_2" data-name="Layer 2"><g id="Layer_1-2" data-name="Layer 1"><path d="M74.35,3.88a12.57,12.57,0,0,0-9-3.88,12.71,12.71,0,0,0-9.09,3.72L53.34,6.63h0l-6.76,6.76L5.42,54.55a2.21,2.21,0,0,0-.61,1.12L0,77.91,22.23,73.1a2.24,2.24,0,0,0,1.13-.61L73.93,21.91C78.85,17,79,8.74,74.35,3.88Zm-21,7L67,24.57l-2.51,2.51L50.82,13.39ZM48.7,15.51l5.79,5.79L14.38,61.41,8.59,55.62Zm-41.44,43,7.12,7.12h0l5,5L3.92,74Zm15,10.79L16.5,63.53,56.61,23.42,62.4,29.2ZM71.81,19.79l-2.66,2.66L55.46,8.75l2.91-2.91A9.69,9.69,0,0,1,72.2,6,10.05,10.05,0,0,1,71.81,19.79Z"/></g></g></svg>