<svg xmlns="http://www.w3.org/2000/svg" viewBox="0 0 103 60.02"><title>bds_icon_cloud</title><g id="Layer_2" data-name="Layer 2"><g id="Layer_1-2" data-name="Layer 1"><path d="M89.13,28.63a19.4,19.4,0,0,0-24.06-17,30,30,0,0,0-52.8,10.86A19.44,19.44,0,0,0,19.45,60h67.8a15.75,15.75,0,0,0,1.88-31.39ZM87.25,57H19.45a16.44,16.44,0,0,1-5.42-32l.79-.27L15,24a27,27,0,0,1,48.27-9.71l.63.88,1-.33a16.13,16.13,0,0,1,4.9-.75,16.47,16.47,0,0,1,16.37,16l0,1.42,1.42.05A12.75,12.75,0,0,1,87.25,57Z"/></g></g></svg>